{"title":"The New World-720p MP AAC x264 Extended Edition BRRip 2005-CC","uid":7296143,"size":3601485924,"categoryP":"video","categoryS":"hd___movies","magnet":"?xt=urn:btih:de3e7f4418918e59ec92d495d5fcdd8c84d52d81&amp;dn=The+New+World-720p+MP+AAC+x264+Extended+Edition+BRRip+2005-CC&amp;tr=udp%3A%2F%2Ftracker.openbittorrent.com%3A80&amp;tr=udp%3A%2F%2Fopen.demonii.com%3A1337&amp;tr=udp%3A%2F%2Ftracker.coppersurfer.tk%3A6969&amp;tr=udp%3A%2F%2Fexodus.desync.com%3A6969","seeders":1,"leechers":1,"uploader":"Caveman44","files":-1,"time":1337890121,"description":"Source: The New World.2005.Extended Cut.720p.BluRay.X264-AMIABLE\n\nSubs: Arabic, Brazilian, Bulgarian, Croatian, Dutch, English, Estonian, Farsi-Persian, French, Hebrew, Portuguese, Romanian, Servian and Spanish.\n\nSubs: English hardcoded when needed.\n\nSample and Screens included.\n\nGeneral\nComplete name                    : The New World-720p MP AAC x264 Extended Edition BRRip 2005-CC.mp4\nFormat                           : MPEG-4\nFormat profile                   : Base Media\nCodec ID                         : isom\nFile size                        : 3.31 GiB\nDuration                         : 2h 51mn\nOverall bit rate                 : 2 761 Kbps\nEncoded date                     : UTC 2012-05-19 08:35:57\n\nVideo\nID                               : 1\nFormat                           : AVC\nFormat/Info                      : Advanced Video Codec\nFormat profile                   : &lt;a class=&quot;__cf_email__&quot; href=&quot;/cdn-cgi/l/email-protection&quot; data-cfemail=&quot;1951707e7159552a3728&quot;&gt;[email&amp;#160;protected]&lt;/a&gt;&lt;script cf-hash='f9e31' type=&quot;text/javascript&quot;&gt;\n/* &lt;![CDATA[ */!function(){try{var t=&quot;currentScript&quot;in document?document.currentScript:function(){for(var t=document.getElementsByTagName(&quot;script&quot;),e=t.length;e--;)if(t[e].getAttribute(&quot;cf-hash&quot;))return t[e]}();if(t&amp;&amp;t.previousSibling){var e,r,n,i,c=t.previousSibling,a=c.getAttribute(&quot;data-cfemail&quot;);if(a){for(e=&quot;&quot;,r=parseInt(a.substr(0,2),16),n=2;a.length-n;n+=2)i=parseInt(a.substr(n,2),16)^r,e+=String.fromCharCode(i);e=document.createTextNode(e),c.parentNode.replaceChild(e,c)}}}catch(u){}}();/* ]]&gt; */&lt;/script&gt;\nFormat settings, CABAC           : Yes\nFormat settings, ReFrames        : 5 frames\nCodec ID                         : avc1\nCodec ID/Info                    : Advanced Video Coding\nDuration                         : 2h 51mn\nBit rate mode                    : Variable\nBit rate                         : 2 370 Kbps\nMaximum bit rate                 : 40.0 Mbps\nWidth                            : 1 280 pixels\nHeight                           : 544 pixels\nDisplay aspect ratio             : 2.35:1\nFrame rate mode                  : Variable\nFrame rate                       : 23.976 fps\nMinimum frame rate               : 19.048 fps\nMaximum frame rate               : 24.390 fps\nResolution                       : 24 bits\nColorimetry                      : 4:2:0\nScan type                        : Progressive\nBits/(Pixel*Frame)               : 0.142\nStream size                      : 2.85 GiB (86%)\nWriting library                  : x264 core 112\n\nAudio\nID                               : 2\nFormat                           : AAC\nFormat/Info                      : Advanced Audio Codec\nFormat version                   : Version 4\nFormat profile                   : LC\nFormat settings, SBR             : No\nCodec ID                         : 40\nDuration                         : 2h 51mn\nBit rate mode                    : Variable\nBit rate                         : 384 Kbps\nMaximum bit rate                 : 716 Kbps\nChannel(s)                       : 6 channels\nChannel positions                : Front: L C R, Rear: L R, LFE\nSampling rate                    : 48.0 KHz\nResolution                       : 16 bits\nStream size                      : 472 MiB (14%)\n\nEnjoy...\n\nRequested by DreamExtractor.","torrent":{"xt":"urn:btih:de3e7f4418918e59ec92d495d5fcdd8c84d52d81","amp;dn":"The+New+World-720p+MP+AAC+x264+Extended+Edition+BRRip+2005-CC","amp;tr":["udp%3A%2F%2Ftracker.openbittorrent.com%3A80","udp%3A%2F%2Fopen.demonii.com%3A1337","udp%3A%2F%2Ftracker.coppersurfer.tk%3A6969","udp%3A%2F%2Fexodus.desync.com%3A6969"],"infoHash":"de3e7f4418918e59ec92d495d5fcdd8c84d52d81","infoHashBuffer":{"type":"Buffer","data":[222,62,127,68,24,145,142,89,236,146,212,149,213,252,221,140,132,213,45,129]},"announce":[],"urlList":[]}}